<mxfile host="app.diagrams.net" modified="2024-03-18T07:54:21.889Z" agent="Mozilla/5.0 (Windows NT 10.0; Win64; x64) AppleWebKit/537.36 (KHTML, like Gecko) Chrome/122.0.0.0 Safari/537.36" etag="6WlWi9j_SAsFjtXap8Gb" version="24.0.7" type="github">
  <diagram id="prtHgNgQTEPvFCAcTncT" name="Page-1">
    <mxGraphModel dx="989" dy="514" grid="1" gridSize="10" guides="1" tooltips="1" connect="1" arrows="1" fold="1" page="1" pageScale="1" pageWidth="827" pageHeight="1169" math="0" shadow="0">
      <root>
        <mxCell id="0" />
        <mxCell id="1" parent="0" />
        <mxCell id="dNxyNK7c78bLwvsdeMH5-11" value="AlgorithmHub(http://124.223.48.192:54187/questions)" style="swimlane;html=1;startSize=20;horizontal=1;containerType=tree;glass=0;" parent="1" vertex="1">
          <mxGeometry y="30" width="820" height="830" as="geometry" />
        </mxCell>
        <mxCell id="q6-PjsSTL5TGRvUFHwgN-4" value="服务器1: 阿里云&lt;div&gt;8.130.46.169&lt;/div&gt;" style="shape=process;whiteSpace=wrap;html=1;backgroundOutline=1;" vertex="1" parent="dNxyNK7c78bLwvsdeMH5-11">
          <mxGeometry x="36" y="40" width="114" height="30" as="geometry" />
        </mxCell>
        <mxCell id="q6-PjsSTL5TGRvUFHwgN-15" value="服务器2: 阿里云&lt;div&gt;123.56.22.129&lt;/div&gt;" style="shape=process;whiteSpace=wrap;html=1;backgroundOutline=1;" vertex="1" parent="dNxyNK7c78bLwvsdeMH5-11">
          <mxGeometry x="339" y="40" width="114" height="30" as="geometry" />
        </mxCell>
        <mxCell id="q6-PjsSTL5TGRvUFHwgN-16" value="服务器3: 腾讯云&lt;div&gt;124.223.48.192&lt;/div&gt;" style="shape=process;whiteSpace=wrap;html=1;backgroundOutline=1;" vertex="1" parent="dNxyNK7c78bLwvsdeMH5-11">
          <mxGeometry x="646" y="40" width="114" height="30" as="geometry" />
        </mxCell>
        <mxCell id="q6-PjsSTL5TGRvUFHwgN-18" value="" style="endArrow=classic;startArrow=classic;html=1;rounded=0;entryX=0;entryY=0.5;entryDx=0;entryDy=0;exitX=1;exitY=0.5;exitDx=0;exitDy=0;" edge="1" parent="dNxyNK7c78bLwvsdeMH5-11" source="q6-PjsSTL5TGRvUFHwgN-4" target="q6-PjsSTL5TGRvUFHwgN-15">
          <mxGeometry width="50" height="50" relative="1" as="geometry">
            <mxPoint x="236" y="100" as="sourcePoint" />
            <mxPoint x="286" y="50" as="targetPoint" />
          </mxGeometry>
        </mxCell>
        <mxCell id="q6-PjsSTL5TGRvUFHwgN-19" value="" style="endArrow=classic;startArrow=classic;html=1;rounded=0;entryX=0;entryY=0.5;entryDx=0;entryDy=0;exitX=1;exitY=0.5;exitDx=0;exitDy=0;" edge="1" parent="dNxyNK7c78bLwvsdeMH5-11">
          <mxGeometry width="50" height="50" relative="1" as="geometry">
            <mxPoint x="453" y="54.66" as="sourcePoint" />
            <mxPoint x="642" y="54.66" as="targetPoint" />
          </mxGeometry>
        </mxCell>
        <mxCell id="q6-PjsSTL5TGRvUFHwgN-20" value="服务器3: 腾讯云&lt;div&gt;124.223.48.192&lt;/div&gt;&lt;div&gt;&lt;br&gt;&lt;/div&gt;&lt;div&gt;&lt;br&gt;&lt;/div&gt;&lt;div&gt;&lt;br&gt;&lt;/div&gt;&lt;div&gt;&lt;br&gt;&lt;/div&gt;&lt;div&gt;&lt;br&gt;&lt;/div&gt;&lt;div&gt;&lt;br&gt;&lt;/div&gt;&lt;div&gt;&lt;br&gt;&lt;/div&gt;&lt;div&gt;&lt;br&gt;&lt;/div&gt;&lt;div&gt;&lt;br&gt;&lt;/div&gt;&lt;div&gt;&lt;br&gt;&lt;/div&gt;&lt;div&gt;&lt;br&gt;&lt;/div&gt;&lt;div&gt;&lt;br&gt;&lt;/div&gt;" style="shape=process;whiteSpace=wrap;html=1;backgroundOutline=1;" vertex="1" parent="dNxyNK7c78bLwvsdeMH5-11">
          <mxGeometry x="140" y="130" width="517" height="210" as="geometry" />
        </mxCell>
        <mxCell id="q6-PjsSTL5TGRvUFHwgN-21" value="oj_server&lt;div&gt;(container)&lt;/div&gt;" style="rounded=1;whiteSpace=wrap;html=1;" vertex="1" parent="dNxyNK7c78bLwvsdeMH5-11">
          <mxGeometry x="344.5" y="180" width="103" height="36" as="geometry" />
        </mxCell>
        <mxCell id="q6-PjsSTL5TGRvUFHwgN-22" value="MySQL" style="rounded=1;whiteSpace=wrap;html=1;" vertex="1" parent="dNxyNK7c78bLwvsdeMH5-11">
          <mxGeometry x="216" y="290" width="144" height="36" as="geometry" />
        </mxCell>
        <mxCell id="q6-PjsSTL5TGRvUFHwgN-23" value="Redis Master&lt;div&gt;(Contanier)&lt;/div&gt;" style="rounded=1;whiteSpace=wrap;html=1;" vertex="1" parent="dNxyNK7c78bLwvsdeMH5-11">
          <mxGeometry x="216" y="240" width="140.5" height="36" as="geometry" />
        </mxCell>
        <mxCell id="q6-PjsSTL5TGRvUFHwgN-26" value="machine_server&lt;div&gt;(container)&lt;/div&gt;" style="rounded=1;whiteSpace=wrap;html=1;" vertex="1" parent="dNxyNK7c78bLwvsdeMH5-11">
          <mxGeometry x="447.5" y="240" width="103" height="36" as="geometry" />
        </mxCell>
        <mxCell id="q6-PjsSTL5TGRvUFHwgN-30" value="compile_server&lt;div&gt;(container)&lt;/div&gt;" style="rounded=1;whiteSpace=wrap;html=1;" vertex="1" parent="dNxyNK7c78bLwvsdeMH5-11">
          <mxGeometry x="447.5" y="290" width="103" height="36" as="geometry" />
        </mxCell>
      </root>
    </mxGraphModel>
  </diagram>
</mxfile>
